<?xml version="1.0" encoding="utf-8"?>
<!-- Generator: Adobe Illustrator 28.2.0, SVG Export Plug-In . SVG Version: 6.00 Build 0)  -->
<svg version="1.1" id="a" xmlns="http://www.w3.org/2000/svg" xmlns:xlink="http://www.w3.org/1999/xlink" x="0px" y="0px"
	 viewBox="0 0 1276.6 462.51" style="enable-background:new 0 0 1276.6 462.51;" xml:space="preserve">
<style type="text/css">
	.st0{fill:#004d25;}
</style>
<path class="st0" d="M105.43,0c63,0,96.62,40.14,100.53,91.39l-53.21,1.96c-3.26-22.85-15.67-44.06-47.65-44.06
	s-47.99,22.52-47.99,57.44s17.64,57.44,47.99,57.44c31.99,0,44.39-21.21,47.66-44.06l53.21,2.28
	c-3.92,51.26-37.54,91.06-100.53,91.06S0,170.04,0,106.72S45.37,0,105.43,0z"/>
<path class="st0" d="M294.37,128.26h48.32l-23.5-60.7h-1.31L294.37,128.26z M351.17,3.92l81.93,205.61h-59.08l-15.35-39.82h-80.29
	l-15.34,39.82h-55.83L289.15,3.92H351.17L351.17,3.92z"/>
<path class="st0" d="M548.45,98.58c23.5,0,35.25-5.87,35.25-24.81c0-16.64-11.75-25.46-35.25-25.46h-39.5v50.26L548.45,98.58
	L548.45,98.58z M584.7,209.55c-4.24-5.55-6.86-18.28-8.49-39.49c-1.63-23.5-11.75-28.72-30.36-28.72h-36.88v68.21h-55.79V3.92
	h105.06c53.21,0,79.65,25.13,79.65,65.27c0,30.03-18.61,49.61-43.74,52.87c21.22,4.24,34.88,16.31,37.16,40.14
	c2.94,30.68,2.66,39.82,9.51,47.32h-56.13L584.7,209.55z"/>
<polygon class="st0" points="725.85,3.92 725.85,163.84 827.69,163.84 827.69,209.53 670.36,209.53 670.36,3.92 "/>
<path class="st0" d="M944.55,50.21c-30.36,0-49.6,22.85-49.6,57.77s19.26,57.77,49.6,57.77s49.6-22.85,49.6-57.77
	S974.9,50.21,944.55,50.21z M944.55,214.7c-59.73,0-106.74-43.41-106.74-106.72s47-106.72,106.74-106.72s106.74,43.41,106.74,106.72
	S1004.28,214.7,944.55,214.7L944.55,214.7z"/>
<path class="st0" d="M1131.31,135.12c1.96,25.79,21.87,34.6,44.72,34.6c19.26,0,31.66-6.85,31.66-18.28
	c0-12.08-12.08-14.03-27.75-16.98l-37.54-6.53c-33.62-6.2-57.12-25.13-57.12-61.03c0-41.77,32.64-66.9,83.89-66.9
	c56.8,0,87.48,27.74,88.46,73.43l-50.93,0.98c-1.63-21.22-16.98-31-38.19-31c-18.28,0-28.72,7.18-28.72,18.6
	c0,9.47,7.84,13.05,20.57,15.34l38.84,6.86c43.09,7.51,62.67,30.03,62.67,63.64c0,43.74-37.86,65.6-85.85,65.6
	c-55.82,0-95.64-27.09-95.64-76.7L1131.31,135.12L1131.31,135.12z"/>
<polygon class="st0" points="10.17,458.59 10.17,252.98 165.55,252.98 165.55,298.67 65.68,298.67 65.68,338.16 140.74,338.16 
	140.74,383.2 65.67,383.2 65.67,458.59 "/>
<path class="st0" d="M283.04,347.63c23.5,0,35.25-5.88,35.25-24.8c0-16.64-11.75-25.46-35.25-25.46h-39.49v50.26L283.04,347.63
	L283.04,347.63z M319.27,458.59c-4.24-5.55-6.85-18.28-8.48-39.49c-1.63-23.5-11.75-28.72-30.36-28.72h-36.88v68.21h-54.51V252.98
	h103.8c53.21,0,79.64,25.13,79.64,65.27c0,30.03-18.6,49.59-43.74,52.87c21.22,4.24,33.62,16.31,35.9,40.14
	c2.94,30.68,3.92,39.82,10.77,47.32h-56.15L319.27,458.59z"/>
<path class="st0" d="M476.85,377.33h48.31l-23.5-60.7h-1.3l-23.5,60.7H476.85z M533.65,252.98l81.93,205.61H556.5l-15.34-39.82
	h-80.29l-15.35,39.82H389.7l81.93-205.61H533.65L533.65,252.98z"/>
<polygon class="st0" points="768.48,366.88 768.48,252.98 819.41,252.98 819.41,458.59 775.01,458.59 686.23,336.86 686.23,458.59 
	635.3,458.59 635.3,252.98 688.18,252.98 "/>
<path class="st0" d="M946.99,249.06c63,0,96.62,40.14,100.53,91.39l-53.21,1.96c-3.26-22.85-15.67-44.06-47.66-44.06
	s-47.98,22.52-47.98,57.44s17.64,57.44,47.98,57.44c31.99,0,44.39-21.21,47.66-44.06l53.21,2.28
	c-3.91,51.26-37.54,91.06-100.53,91.06S841.56,419.1,841.56,355.78S886.93,249.06,946.99,249.06z"/>
<path class="st0" d="M1169.86,298.02c-30.36,0-49.6,22.84-49.6,57.77s19.26,57.77,49.6,57.77s49.6-22.85,49.6-57.77
	S1200.21,298.02,1169.86,298.02z M1169.86,462.51c-59.73,0-106.74-43.41-106.74-106.73s47-106.72,106.74-106.72
	s106.74,43.41,106.74,106.72S1229.6,462.51,1169.86,462.51z"/>
</svg>
